<svg xmlns="http://www.w3.org/2000/svg" width="380" height="120" viewBox="0 0 380 120" role="img" aria-label="Apinni logo"><g transform="translate(10, 10)"><rect width="100" height="100" rx="12" ry="12" fill="#1e293b" stroke="#334155" stroke-width="1"/><g transform="scale(0.75) translate(16, 16)"><path d="M 69.3 41.73 v -20 a 2 2 0 0 0 -1 -1.73 L 51 10 a 2 2 0 0 0 -2 0 L 31.7 20 a 2 2 0 0 0 -1 1.73 v 20 a 2 2 0 0 0 1 1.73 l 17.3 10 a 2 2 0 0 0 2 0 l 17.3 -10 a 2 2 0 0 0 1 -1.73 Z" fill="#60a5fa"/><path d="M 89.41 56.54 l -17.29 -10 a 2 2 0 0 0 -2 0 l -17.3 10 a 2 2 0 0 0 -1 1.74 v 20 a 2 2 0 0 0 1 1.73 l 17.3 10 a 2 2 0 0 0 2 0 l 17.29 -10 a 2 2 0 0 0 1 -1.73 v -20 a 2 2 0 0 0 -1 -1.74 Z" fill="#60a5fa"/><path d="M 47.18 56.54 l -17.3 -10 a 2 2 0 0 0 -2 0 l -17.29 10 a 2 2 0 0 0 -1 1.74 v 20 a 2 2 0 0 0 1 1.73 l 17.29 10 a 2 2 0 0 0 2 0 l 17.3 -10 a 2 2 0 0 0 1 -1.73 v -20 a 2 2 0 0 0 -1 -1.74 Z" fill="#60a5fa"/></g><text x="140" y="50" font-family="ui-monospace, SFMono-Regular, 'SF Mono', Consolas, 'Liberation Mono', Menlo, monospace" font-size="60" font-weight="600" fill="#e2e8f0" text-anchor="start" dominant-baseline="central">Apinni</text></g></svg>