<svg xmlns="http://www.w3.org/2000/svg" width="340" height="120" viewBox="0 0 340 120" role="img" aria-label="Apinni logo">
  <g transform="translate(10, 10)">
    <rect width="100" height="100" rx="10" ry="10" fill="#000000"/>

    <g transform="scale(0.75) translate(16, 16)">
      <path d="M 69.3 41.73 v -20 a 2 2 0 0 0 -1 -1.73 L 51 10 a 2 2 0 0 0 -2 0 L 31.7 20 a 2 2 0 0 0 -1 1.73 v 20 a 2 2 0 0 0 1 1.73 l 17.3 10 a 2 2 0 0 0 2 0 l 17.3 -10 a 2 2 0 0 0 1 -1.73 Z" fill="#ffffff"/>
      <path d="M 89.41 56.54 l -17.29 -10 a 2 2 0 0 0 -2 0 l -17.3 10 a 2 2 0 0 0 -1 1.74 v 20 a 2 2 0 0 0 1 1.73 l 17.3 10 a 2 2 0 0 0 2 0 l 17.29 -10 a 2 2 0 0 0 1 -1.73 v -20 a 2 2 0 0 0 -1 -1.74 Z" fill="#ffffff"/>
      <path d="M 47.18 56.54 l -17.3 -10 a 2 2 0 0 0 -2 0 l -17.29 10 a 2 2 0 0 0 -1 1.74 v 20 a 2 2 0 0 0 1 1.73 l 17.29 10 a 2 2 0 0 0 2 0 l 17.3 -10 a 2 2 0 0 0 1 -1.73 v -20 a 2 2 0 0 0 -1 -1.74 Z" fill="#ffffff"/>
    </g>

    <text x="140" y="50" font-family="monospace, Roboto, sans-serif" font-size="60" font-weight="normal" fill="#000000" text-anchor="start" dominant-baseline="central">Apinni</text>
  </g>
</svg>